Coordinates
version=1
nRows=12
nColumns=24
inDegrees=yes

Units are S.I. units (second, meters, Newtons, ...)
Angles are in degrees.

endheader
time	pelvis_tilt	pelvis_list	pelvis_rotation	pelvis_tx	pelvis_ty	pelvis_tz	hip_flexion_r	hip_adduction_r	hip_rotation_r	knee_angle_r	ankle_angle_r	subtalar_angle_r	mtp_angle_r	hip_flexion_l	hip_adduction_l	hip_rotation_l	knee_angle_l	ankle_angle_l	subtalar_angle_l	mtp_angle_l	lumbar_extension	lumbar_bending	lumbar_rotation
      1.26616667	    -11.39260184	     -2.39005316	     -7.94419329	      0.07150025	      0.95225038	      0.32828965	    -14.30142877	      8.01284918	      6.57951813	     -1.72395244	     -7.10385950	      6.67371036	    -50.40967693	     35.88473875	     -1.75335396	     -9.71390520	     -0.04441054	     -7.48832821	     -6.66263821	    -19.36714518	     25.59090006	      5.23523249	      9.30312334
      1.27033333	    -11.35932674	     -2.26759845	     -7.97875479	      0.07776721	      0.95214409	      0.32818494	    -14.35564084	      7.78365692	      6.20594814	     -2.20494652	     -7.39895059	      7.14478636	    -50.19844653	     35.70347978	     -1.57477607	     -9.58423979	     -0.32039941	     -7.77975572	     -7.14624942	    -19.16734108	     25.62194383	      5.07905307	      9.40757140
      1.27450000	    -11.34891415	     -2.17332910	     -8.10634481	      0.08391548	      0.95210834	      0.32845018	    -14.36639988	      7.59817503	      6.13108940	     -2.75392119	     -7.59991461	      7.26780836	    -50.13597288	     35.51573136	     -1.51799275	     -9.51581245	     -0.58662925	     -7.90561134	     -7.25826248	    -19.10534554	     25.64071634	      4.97562343	      9.43369286
      1.27866667	    -11.33544850	     -2.05303221	     -8.23232883	      0.09018268	      0.95211658	      0.32860461	    -14.34562116	      7.36552665	      5.87829842	     -3.30504074	     -8.01882608	      7.62436983	    -50.04602419	     35.31262185	     -1.41720169	     -9.63631879	     -0.80557657	     -8.20526510	     -7.51277015	    -19.01405179	     25.69895185	      4.85947564	      9.48624350
      1.28283333	    -11.16947252	     -1.86946068	     -8.18904661	      0.09677241	      0.95230532	      0.32827932	    -14.52221319	      7.03466460	      5.42958744	     -3.79101586	     -8.30773672	      8.26501456	    -49.67974549	     34.89443284	     -1.08713251	     -9.47361646	     -0.84943956	     -8.91035380	     -8.36505810	    -18.63849501	     25.69240959	      4.63335060	      9.70208929
      1.28700000	    -11.16030759	     -1.77826948	     -8.32391326	      0.10302081	      0.95239132	      0.32852363	    -14.45065098	      6.84017523	      5.20988892	     -4.41584543	     -8.75297342	      8.54142432	    -49.57924643	     34.68136930	     -1.03245398	     -9.72878515	     -1.04167164	     -9.21200315	     -8.46025624	    -18.52654461	     25.75620194	      4.57935510	      9.71289480
      1.29116667	    -11.13904991	     -1.64261398	     -8.44720946	      0.10943874	      0.95254401	      0.32872077	    -14.37990688	      6.58490128	      4.95475279	     -5.04178485	     -9.24529458	      8.89791066	    -49.46183204	     34.40473125	     -0.91323928	     -9.92374183	     -1.10092025	     -9.78126987	     -8.68245510	    -18.39278799	     25.85598410	      4.43523151	      9.77965492
      1.29533333	    -11.09339013	     -1.51062328	     -8.55887918	      0.11587259	      0.95276561	      0.32885983	    -14.30840967	      6.32426093	      4.65705012	     -5.70899888	     -9.73007903	      9.26483420	    -49.33708540	     34.08877920	     -0.77915387	    -10.10646266	     -1.11858044	    -10.43044506	     -9.01643397	    -18.24241853	     25.90892453	      4.30839669	      9.85986440
      1.29950000	    -10.92739600	     -1.33064451	     -8.62944659	      0.12247181	      0.95320030	      0.32877576	    -14.35966793	      5.96898549	      4.27386512	     -6.38541069	    -10.11282736	      9.71290994	    -48.98462277	     33.57925664	     -0.51962920	    -10.05654193	     -0.97766313	    -11.31199735	     -9.82964752	    -17.77931957	     25.82007367	      4.12590112	     10.06180443
      1.30366667	    -10.94315347	     -1.22681348	     -8.75224397	      0.12885928	      0.95340357	      0.32901050	    -14.16314203	      5.75057649	      3.99913889	     -7.13075869	    -10.69024198	     10.08194670	    -48.89445142	     33.33662450	     -0.44567402	    -10.36347303	     -1.02939315	    -11.83024234	     -9.85153995	    -17.64728976	     25.93161979	      4.00993601	     10.08370607
      1.30783333	    -10.88124519	     -1.06749634	     -8.87869561	      0.13541890	      0.95378096	      0.32918841	    -14.04752206	      5.43877790	      3.77760330	     -7.86181509	    -11.28364455	     10.42346781	    -48.69814358	     32.94387831	     -0.28344563	    -10.50384489	     -0.89257585	    -12.79664822	    -10.32896800	    -17.34260570	     25.98211665	      3.77260842	     10.20065387
      1.31200000	    -10.86053293	     -0.97481667	     -8.97555289	      0.14180788	      0.95410334	      0.32930235	    -13.82855163	      5.21355621	      3.38173059	     -8.70091682	    -11.85100129	     10.77707054	    -48.62627276	     32.66248920	     -0.19091086	    -10.80958147	     -0.93864904	    -13.32562988	    -10.42836307	    -17.21491505	     26.05147268	      3.76812261	     10.21132869
